<?xml version="1.0" encoding="UTF-8" standalone="no"?>
<svg width="62px" height="58px" viewBox="0 0 62 58" version="1.1" xmlns="http://www.w3.org/2000/svg" xmlns:xlink="http://www.w3.org/1999/xlink">
    <!-- Generator: Sketch 3.8.3 (29802) - http://www.bohemiancoding.com/sketch -->
    <title>manki</title>
    <desc>Created with Sketch.</desc>
    <defs></defs>
    <g id="Page-1" stroke="none" stroke-width="1" fill="none" fill-rule="evenodd">
        <g id="manki" transform="translate(4.000000, 5.000000)" fill="#ff480c">
            <g>
                <path d="M44.1789024,12.2058752 C44.1789024,8.95642199 42.0373876,6.84667558 38.6756587,5.68654322 C37.5685603,5.30448365 36.3965336,5.05005211 35.2267019,4.89593293 C34.5240622,4.80336385 33.9710597,4.76421894 33.6381872,4.75587478 L26.7386957,4.75548224 L19.8705283,4.75548224 C19.5063317,4.76421894 18.9533292,4.80336385 18.2506896,4.89593293 C17.0808578,5.05005211 15.9088311,5.30448365 14.8017327,5.68654322 C11.4400039,6.84667558 9.29848905,8.95642199 9.29848905,12.2058752 C9.29848905,15.3128898 11.5235304,18.2873241 15.1741167,21.1498429 C16.3992695,22.1105168 17.7061972,22.9908516 19.0127803,23.7746723 C19.4701426,24.0490446 19.8955046,24.292164 20.2784708,24.5017482 C20.5114664,24.6292587 20.6809288,24.7184317 20.7764143,24.7669182 L20.2441527,23.0553613 C20.213182,23.1123319 20.1593395,23.2142268 20.0858831,23.357686 C19.9659557,23.5919029 19.8329919,23.8608653 19.6902499,24.1612379 C19.2841504,25.0157943 18.8786232,25.9550546 18.4997926,26.9528605 C17.710804,29.0309856 17.1415656,31.084789 16.887849,33.030523 C16.0203172,39.6835607 19.0122473,43.9819221 26.7386957,43.9819221 C34.3295225,43.9819221 37.283873,39.6864455 36.4723182,33.0406317 C36.2336543,31.0862157 35.6833179,29.0223967 34.9163273,26.9349087 C34.5525125,25.9447283 34.163025,25.013106 33.7729704,24.1658727 C33.635854,23.8680436 33.508126,23.6014062 33.3929167,23.3692515 C33.3223413,23.2270372 33.2706033,23.1260311 33.2408329,23.0695476 L32.7009772,24.7669182 C32.7964626,24.7184317 32.965925,24.6292587 33.1989206,24.5017482 C33.5818868,24.292164 34.0072488,24.0490446 34.4646111,23.7746723 C35.7711942,22.9908516 37.0781219,22.1105168 38.3032747,21.1498429 C41.9538611,18.2873241 44.1789024,15.3128898 44.1789024,12.2058752 L44.1789024,12.2058752 Z M41.6789024,12.2058752 C41.6789024,14.3186667 39.8562401,16.7552008 36.7606538,19.1825299 C35.6246462,20.0733028 34.4017591,20.8970285 33.1785275,21.6308466 C32.7504547,21.887648 32.3536268,22.1144585 31.9987304,22.3086811 C31.7890085,22.4234547 31.642244,22.5006838 31.5690751,22.5378381 C30.9469035,22.85377 30.7038649,23.6179123 31.0292194,24.2352087 C31.1197232,24.4069219 31.2857457,24.7414687 31.5020774,25.2113605 C31.8657694,26.0013322 32.2300285,26.8726099 32.5697105,27.7971091 C33.2754574,29.7179125 33.7782385,31.6033942 33.9907525,33.3436686 C34.6353865,38.6225697 32.6687759,41.4819221 26.7386957,41.4819221 C20.667736,41.4819221 18.6794548,38.6254546 19.3668622,33.3537773 C19.5923603,31.6244491 20.1117551,29.7504807 20.8370125,27.8402179 C21.1905405,26.9090567 21.5696834,26.0309065 21.948254,25.2342791 C22.1734669,24.7603628 22.3463248,24.4227735 22.4405779,24.249395 C22.7768665,23.630792 22.5361163,22.856628 21.9083163,22.5378381 C21.8351474,22.5006838 21.688383,22.4234547 21.478661,22.3086811 C21.1237646,22.1144585 20.7269368,21.887648 20.2988639,21.6308466 C19.0756323,20.8970285 17.8527453,20.0733028 16.7167376,19.1825299 C13.6211513,16.7552008 11.7984891,14.3186667 11.7984891,12.2058752 C11.7984891,10.234452 13.152739,8.90029177 15.6172846,8.04977726 C16.5493823,7.72811042 17.5622086,7.50823919 18.5772298,7.37451548 C18.9336736,7.32755589 19.2638298,7.29489655 19.5582338,7.27405684 C19.7297923,7.26191287 19.8474421,7.25645361 19.9018524,7.2550897 L26.7386957,7.25548224 L33.6068631,7.25548224 C33.6299494,7.25645361 33.7475992,7.26191287 33.9191577,7.27405684 C34.2135617,7.29489655 34.5437178,7.32755589 34.9001616,7.37451548 C35.9151828,7.50823919 36.9280091,7.72811042 37.8601068,8.04977726 C40.3246525,8.90029177 41.6789024,10.234452 41.6789024,12.2058752 L41.6789024,12.2058752 Z" id="Stroke-1"></path>
                <path d="M20.4189405,15.3060717 C20.4189405,15.2662104 20.4367075,15.2489255 20.4426123,15.2489255 C20.447907,15.2489255 20.466284,15.2668162 20.466284,15.3060717 C20.466284,15.3453273 20.447907,15.3632179 20.4426123,15.3632179 C20.4367075,15.3632179 20.4189405,15.3459331 20.4189405,15.3060717 L20.4189405,15.3060717 Z M22.9189405,15.3060717 C22.9189405,13.949594 21.8022606,12.8632179 20.4426123,12.8632179 C19.0819824,12.8632179 17.966284,13.9493826 17.966284,15.3060717 C17.966284,16.6627608 19.0819824,17.7489255 20.4426123,17.7489255 C21.8022606,17.7489255 22.9189405,16.6625494 22.9189405,15.3060717 L22.9189405,15.3060717 Z" id="Stroke-3"></path>
                <path d="M33.0113505,15.3060717 C33.0113505,15.2662104 33.0291175,15.2489255 33.0350222,15.2489255 C33.0403169,15.2489255 33.058694,15.2668162 33.058694,15.3060717 C33.058694,15.3453273 33.0403169,15.3632179 33.0350222,15.3632179 C33.0291175,15.3632179 33.0113505,15.3459331 33.0113505,15.3060717 L33.0113505,15.3060717 Z M35.5113505,15.3060717 C35.5113505,13.949594 34.3946706,12.8632179 33.0350222,12.8632179 C31.6743924,12.8632179 30.558694,13.9493826 30.558694,15.3060717 C30.558694,16.6627608 31.6743924,17.7489255 33.0350222,17.7489255 C34.3946706,17.7489255 35.5113505,16.6625494 35.5113505,15.3060717 L35.5113505,15.3060717 Z" id="Stroke-5"></path>
                <path d="M24.0489189,24.792756 L22.5634426,26.7000987 C22.1392515,27.2447575 22.2369098,28.0301655 22.7815687,28.4543566 C23.3262275,28.8785477 24.1116355,28.7808894 24.5358266,28.2362305 L26.021303,26.3288879 C26.4454941,25.784229 26.3478357,24.998821 25.8031769,24.5746299 C25.258518,24.1504388 24.47311,24.2480972 24.0489189,24.792756 L24.0489189,24.792756 Z" id="Stroke-7"></path>
                <path d="M27.4694848,26.3288879 L28.9549611,28.2362305 C29.3791522,28.7808894 30.1645603,28.8785477 30.7092191,28.4543566 C31.2538779,28.0301655 31.3515363,27.2447575 30.9273452,26.7000987 L29.4418688,24.792756 C29.0176777,24.2480972 28.2322697,24.1504388 27.6876109,24.5746299 C27.142952,24.998821 27.0452937,25.784229 27.4694848,26.3288879 L27.4694848,26.3288879 Z" id="Stroke-9"></path>
                <path d="M17.1207091,34.9751833 C17.4543278,35.4634847 18.1414102,36.0866085 19.2667906,36.6662594 C21.1562181,37.6394489 23.7413952,38.1732858 27.1174092,38.0795597 C30.2542094,37.9924747 32.5874875,37.4890523 34.2389741,36.6786207 C35.4653081,36.0768236 36.1542233,35.3987001 36.4396476,34.833479 C36.7508358,34.2172378 36.5035415,33.4654077 35.8873003,33.1542195 C35.2710592,32.8430313 34.5192291,33.0903255 34.2080408,33.7065667 C34.2280292,33.6669841 34.2064007,33.6968597 34.1207183,33.7811999 C33.9115246,33.9871166 33.5923996,34.211117 33.1376176,34.4342914 C31.8331526,35.0744296 29.8477476,35.5027958 27.0480301,35.5805225 C24.0776139,35.6629883 21.9093992,35.2152538 20.4115408,34.4437503 C19.6658465,34.0596647 19.2902728,33.719052 19.1849269,33.5648624 C18.7954775,32.9948444 18.0176756,32.8484646 17.4476576,33.237914 C16.8776396,33.6273634 16.7312598,34.4051653 17.1207091,34.9751833 L17.1207091,34.9751833 Z" id="Stroke-11"></path>
                <path d="M49.5365785,16.1360696 C50.2497681,9.33220816 46.7723313,3.09648629 42.0388407,0.606075151 C40.3713698,-0.271100769 38.1603233,-0.793900436 35.5222036,-1.04310536 C33.0938708,-1.27249316 30.5191947,-1.25436787 28.0798418,-1.08688724 C27.6810195,-1.05950498 27.3201807,-1.0301104 27.0031862,-1.00062119 C26.8104259,-0.982689172 26.673393,-0.96850264 26.5979738,-0.959972763 L26.8789315,-0.959972763 C26.8035123,-0.96850264 26.6664794,-0.982689172 26.4737191,-1.00062119 C26.1567246,-1.0301104 25.7958857,-1.05950498 25.3970635,-1.08688724 C22.9577106,-1.25436787 20.3830345,-1.27249316 17.9547017,-1.04310536 C15.3165819,-0.793900436 13.1055354,-0.271100769 11.4381287,0.606041418 C6.70566783,3.09677922 3.22831061,9.33235832 3.94030488,16.1358604 C4.01215902,16.8224668 4.62701275,17.3208219 5.31361911,17.2489678 C6.00022548,17.1771136 6.49858063,16.5622599 6.42672648,15.8756535 C5.82303136,10.1070102 8.75982293,4.8407706 12.6022603,2.81846034 C13.9283001,2.12089485 15.8476781,1.6670599 18.1898127,1.44581465 C20.4632934,1.23105466 22.9106036,1.24828331 25.2258221,1.40724114 C25.6039693,1.4332039 25.9447526,1.46096471 26.2421501,1.48863087 C26.4180251,1.50499209 26.5386318,1.51747806 26.5979738,1.52418962 C26.6913288,1.53474803 26.7855765,1.53474803 26.8789315,1.52418962 C26.9382735,1.51747806 27.0588802,1.50499209 27.2347551,1.48863087 C27.5321527,1.46096471 27.8729359,1.4332039 28.2510831,1.40724114 C30.5663017,1.24828331 33.0136119,1.23105466 35.2870926,1.44581465 C37.6292272,1.6670599 39.5486052,2.12089485 40.8748681,2.81857773 C44.7181867,4.84064653 47.6548859,10.1067204 47.0502007,15.8754443 C46.978231,16.5620385 47.4764826,17.1769761 48.1630769,17.2489458 C48.8496712,17.3209156 49.4646088,16.8226639 49.5365785,16.1360696 L49.5365785,16.1360696 Z" id="Stroke-13"></path>
                <path d="M10.2150681,30.5374996 C12.2468094,34.8231916 12.8736498,38.2837492 12.6012769,40.9135773 C12.4150256,42.7050987 13.1120756,44.4579697 14.4932056,45.6146935 C16.8410504,47.5812443 21.9986167,49.228032 26.7386957,49.228032 C31.4783029,49.228032 36.6342916,47.5816239 38.9839094,45.614925 C40.3653159,44.4579697 41.0623659,42.7050987 40.8760646,40.9130951 C40.6035498,38.2818969 41.2298701,34.822637 43.2622239,30.5377094 C43.558071,29.913958 43.2922521,29.1684761 42.6685007,28.872629 C42.0447493,28.5767819 41.2992674,28.8426008 41.0034203,29.4663522 C38.7781498,34.1580171 38.068824,38.0757286 38.3894163,41.1711262 C38.4904695,42.1431432 38.1183766,43.078845 37.3789943,43.6980923 C35.5089136,45.2634046 30.9221999,46.728032 26.7386957,46.728032 C22.5548787,46.728032 17.9668304,45.2630889 16.0984413,43.6981293 C15.3590148,43.078845 14.9869219,42.1431432 15.0879251,41.1716083 C15.4083757,38.07758 14.6985263,34.1587594 12.4740706,29.466562 C12.1783393,28.8427556 11.4329068,28.5767983 10.8091005,28.8725295 C10.1852942,29.1682608 9.91933678,29.9136933 10.2150681,30.5374996 L10.2150681,30.5374996 Z" id="Stroke-15"></path>
                <path d="M4.7691305,14.826527 C1.19121388,16.0845558 -1.24987846,19.399114 -1.24987846,23.1763377 C-1.24987846,28.0892712 2.83224254,32.0569319 7.85032384,32.0569319 C9.26494651,32.0569319 10.637128,31.7346714 11.8903365,31.1264698 C12.5114146,30.8250509 12.7705495,30.0772194 12.4691307,29.4561413 C12.1677118,28.8350632 11.4198803,28.5759282 10.7988022,28.8773471 C9.88220253,29.3221872 8.88266238,29.5569319 7.85032384,29.5569319 C4.19729302,29.5569319 1.25012154,26.6923974 1.25012154,23.1763377 C1.25012154,20.4791331 3.00448532,18.097027 5.59838702,17.184987 C6.24965777,16.9559941 6.59198163,16.2423994 6.36298877,15.5911287 C6.1339959,14.9398579 5.42040125,14.5975341 4.7691305,14.826527 L4.7691305,14.826527 Z" id="Stroke-17"></path>
                <path d="M3.94057312,16.1361006 C4.27137471,19.2912059 5.45073261,22.5239041 7.53465244,25.7603904 C8.59944618,27.4133446 9.48880999,29.0057331 10.2151089,30.5374635 C10.5108878,31.1612472 11.2563406,31.4271477 11.8801244,31.1313689 C12.5039081,30.83559 12.7698086,30.0901372 12.4740297,29.4663534 C11.7008046,27.8356579 10.7587877,26.148995 9.63647674,24.4067529 C7.75953273,21.4917158 6.71584814,18.6309071 6.4269444,15.8754134 C6.35495762,15.1888209 5.74000763,14.6905845 5.05341516,14.7625713 C4.36682269,14.8345581 3.86858633,15.4495081 3.94057312,16.1361006 L3.94057312,16.1361006 Z" id="Stroke-19"></path>
                <path d="M47.050204,15.8754134 C46.7613002,18.6309071 45.7176156,21.4917158 43.8405315,24.4069704 C42.7183607,26.148995 41.7763438,27.8356579 41.0031186,29.4663534 C40.7092331,30.0861442 40.9697095,30.8269804 41.5868119,31.1264698 C42.8400203,31.7346714 44.2122018,32.0569319 45.6268245,32.0569319 C50.6449058,32.0569319 54.7270268,28.0892712 54.7270268,23.1763377 C54.7270268,19.399114 52.2859345,16.0845558 48.7080179,14.826527 C47.9463538,14.5587188 47.1343928,15.0724404 47.050204,15.8754134 L47.050204,15.8754134 Z M49.5365752,16.1361006 L47.8787613,17.184987 C50.472663,18.097027 52.2270268,20.4791331 52.2270268,23.1763377 C52.2270268,26.6923974 49.2798553,29.5569319 45.6268245,29.5569319 C44.594486,29.5569319 43.5949458,29.3221872 42.6783462,28.8773471 L42.132579,30.0019085 L43.2620394,30.5374635 C43.9883384,29.0057331 44.8777022,27.4133446 45.9423558,25.7606079 C48.0264157,22.5239041 49.2057736,19.2912059 49.5365752,16.1361006 L49.5365752,16.1361006 Z" id="Stroke-21"></path>
                <path d="M43.2620394,30.5375858 C43.9883384,29.0058555 44.8777022,27.4134669 45.9423558,25.7607303 C48.0267611,22.5222668 49.2058453,19.2906444 49.5365752,16.1362229 C49.608562,15.4496304 49.1103257,14.8346804 48.4237332,14.7626937 C47.7371407,14.6907069 47.1221907,15.1889432 47.050204,15.8755357 C46.7613683,18.6303801 45.717911,21.4902774 43.8404152,24.4072735 C42.7183607,26.1491173 41.7763438,27.8357803 41.0031186,29.4664758 C40.7073397,30.0902595 40.9732402,30.8357123 41.597024,31.1314912 C42.2208078,31.4272701 42.9662606,31.1613696 43.2620394,30.5375858 L43.2620394,30.5375858 Z" id="Stroke-23"></path>
            </g>
        </g>
    </g>
</svg>